<?xml version="1.0" encoding="UTF-8" standalone="no"?>
<!-- Generator: Adobe Illustrator 18.0.0, SVG Export Plug-In . SVG Version: 6.00 Build 0)  -->

<svg
   xmlns:dc="http://purl.org/dc/elements/1.1/"
   xmlns:cc="http://creativecommons.org/ns#"
   xmlns:rdf="http://www.w3.org/1999/02/22-rdf-syntax-ns#"
   xmlns:svg="http://www.w3.org/2000/svg"
   xmlns="http://www.w3.org/2000/svg"
   xmlns:sodipodi="http://sodipodi.sourceforge.net/DTD/sodipodi-0.dtd"
   xmlns:inkscape="http://www.inkscape.org/namespaces/inkscape"
   version="1.1"
   id="Layer_1"
   x="0px"
   y="0px"
   viewBox="0 0 1235.5012 1100"
   enable-background="new 0 0 800 600"
   xml:space="preserve"
   sodipodi:docname="beer-placeholder.svg"
   width="494.20047"
   height="440"
   inkscape:version="0.92.3 (2405546, 2018-03-11)"><metadata
   id="metadata899"><rdf:RDF><cc:Work
       rdf:about=""><dc:format>image/svg+xml</dc:format><dc:type
         rdf:resource="http://purl.org/dc/dcmitype/StillImage" /><dc:title></dc:title></cc:Work></rdf:RDF></metadata><defs
   id="defs897" /><sodipodi:namedview
   pagecolor="#bcbec0"
   bordercolor="#666666"
   borderopacity="1"
   objecttolerance="10"
   gridtolerance="10"
   guidetolerance="10"
   inkscape:pageopacity="1"
   inkscape:pageshadow="2"
   inkscape:window-width="3840"
   inkscape:window-height="2124"
   id="namedview895"
   showgrid="false"
   fit-margin-top="100"
   fit-margin-bottom="100"
   fit-margin-right="150"
   fit-margin-left="150"
   inkscape:zoom="1.33"
   inkscape:cx="114.27708"
   inkscape:cy="151.73265"
   inkscape:window-x="1920"
   inkscape:window-y="0"
   inkscape:window-maximized="1"
   inkscape:current-layer="g892" />
<g
   id="g892"
   transform="translate(217.9,250)">
	
	
	
	
<rect
   style="fill:#bcbec0;fill-opacity:1;stroke:#bcbec0;stroke-width:2.30889106;stroke-opacity:1"
   id="rect915"
   width="1275.7239"
   height="1129.9099"
   x="-235.99211"
   y="-262.87949" /><path
   d="m 586.6,196.9 h -58.1 v -45.4 c 18.3,-14.9 30,-37.7 30,-62.4 0,-44.1 -35.6,-79.7 -79.7,-79.7 -28.1,0 -53.4,15 -67.5,37.5 -8.4,-5.6 -19.7,-9.4 -30.9,-9.4 -9.4,0 -17.8,1.9 -25.3,6.6 C 337.2,16.9 307.2,0 273.4,0 c -49.7,0 -90.9,36.6 -97.5,84.4 -12.2,9.4 -18.8,22.5 -18.8,37.5 0,14.7 6.5,27.7 16.9,36.3 v 385.6 c 0,30.9 25.3,56.2 56.2,56.2 h 241.9 c 30.9,0 56.2,-25.3 56.2,-56.2 v -56.2 h 58.1 c 30.9,0 56.2,-25.3 56.2,-56.2 V 253.1 c 0.2,-30.9 -25.1,-56.2 -56,-56.2 z m -318.8,46.9 c 26.2,0 46.9,-20.6 46.9,-46.9 v -28.1 h 167.8 8.4 V 496.9 H 211.6 V 168.8 h 9.4 v 28.1 c -0.1,26.2 20.6,46.9 46.8,46.9 z M 200.3,113.4 c 6.6,-2.8 11.2,-9.4 11.2,-16.9 0.9,-32.8 28.1,-59.1 60.9,-59.1 27.2,0 50.6,16.9 58.1,42.2 2.8,7.5 8.4,12.2 15.9,13.1 6.6,0.9 14.1,-1.9 17.8,-8.4 3.8,-5.6 9.4,-9.4 15.9,-9.4 10.3,0 18.8,8.4 18.8,18.8 0,10.4 8.4,18.8 18.8,18.8 5.6,0 10.3,-1.9 15,-5.6 3.8,-3.8 4.7,-8.4 4.7,-14.1 0,-0.9 0,-1.9 0,-2.8 0,-23.4 18.8,-42.2 42.2,-42.2 23.4,0 42.2,18.8 42.2,42.2 0,20.6 -15,37.5 -35.6,41.2 h -1.9 -1.9 -186.5 c -10.3,0 -18.8,8.4 -18.8,18.8 v 46.9 c 0,4.7 -4.7,9.4 -9.4,9.4 -4.7,0 -9.4,-4.7 -9.4,-9.4 V 150 c 0,-10.3 -8.4,-18.8 -18.8,-18.8 h -35.6 c -4.7,0 -9.4,-4.7 -9.4,-9.4 0.2,-3.7 3,-7.4 5.8,-8.4 z M 472.2,562.5 H 230.3 c -10.3,0 -18.8,-8.4 -18.8,-18.8 v -9.4 h 279.4 v 9.4 c 0,10.4 -8.4,18.8 -18.7,18.8 z M 605.3,431.2 c 0,10.3 -8.4,18.8 -18.8,18.8 H 528.4 V 234.4 h 58.1 c 10.3,0 18.8,8.4 18.8,18.8 z"
   id="path884"
   inkscape:connector-curvature="0"
   style="fill:#e7e8e9;fill-opacity:0.74647886" /><path
   d="m 267.8,440.6 c 10.3,0 18.8,-8.4 18.8,-18.8 V 290.6 c 0,-10.3 -8.4,-18.8 -18.8,-18.8 -10.4,0 -18.8,8.4 -18.8,18.8 v 131.2 c 0.1,10.4 8.5,18.8 18.8,18.8 z"
   id="path886"
   inkscape:connector-curvature="0"
   style="fill:#e7e8e9;fill-opacity:0.74509805" /><path
   d="m 352.2,440.6 c 10.3,0 18.8,-8.4 18.8,-18.8 V 290.6 c 0,-10.3 -8.4,-18.8 -18.8,-18.8 -10.4,0 -18.8,8.4 -18.8,18.8 v 131.2 c 0,10.4 8.5,18.8 18.8,18.8 z"
   id="path888"
   inkscape:connector-curvature="0"
   style="fill:#e7e8e9;fill-opacity:0.74509805" /><path
   d="m 436.6,440.6 c 10.3,0 18.8,-8.4 18.8,-18.8 V 290.6 c 0,-10.3 -8.4,-18.8 -18.8,-18.8 -10.4,0 -18.8,8.4 -18.8,18.8 v 131.2 c 0,10.4 8.4,18.8 18.8,18.8 z"
   id="path890"
   inkscape:connector-curvature="0"
   style="fill:#e7e8e9;fill-opacity:0.74509805" /></g>
</svg>