<?xml version="1.0" encoding="UTF-8" standalone="no"?>
<svg
   xmlns:dc="http://purl.org/dc/elements/1.1/"
   xmlns:cc="http://creativecommons.org/ns#"
   xmlns:rdf="http://www.w3.org/1999/02/22-rdf-syntax-ns#"
   xmlns:svg="http://www.w3.org/2000/svg"
   xmlns="http://www.w3.org/2000/svg"
   xmlns:sodipodi="http://sodipodi.sourceforge.net/DTD/sodipodi-0.dtd"
   xmlns:inkscape="http://www.inkscape.org/namespaces/inkscape"
   width="10.457998"
   height="13.394688"
   viewBox="0 0 10.457998 13.394687"
   version="1.1"
   xml:space="preserve"
   style="clip-rule:evenodd;fill-rule:evenodd;stroke-miterlimit:1.5"
   id="svg4547"
   sodipodi:docname="hops_logo.svg"
   inkscape:version="0.92.3 (2405546, 2018-03-11)"><metadata
     id="metadata4553"><rdf:RDF><cc:Work
         rdf:about=""><dc:format>image/svg+xml</dc:format><dc:type
           rdf:resource="http://purl.org/dc/dcmitype/StillImage" /><dc:title></dc:title></cc:Work></rdf:RDF></metadata><defs
     id="defs4551" /><sodipodi:namedview
     pagecolor="#ffffff"
     bordercolor="#666666"
     borderopacity="1"
     objecttolerance="10"
     gridtolerance="10"
     guidetolerance="10"
     inkscape:pageopacity="0"
     inkscape:pageshadow="2"
     inkscape:window-width="3840"
     inkscape:window-height="2092"
     id="namedview4549"
     showgrid="false"
     fit-margin-top="0"
     fit-margin-left="0"
     fit-margin-right="0"
     fit-margin-bottom="0"
     inkscape:zoom="168.75978"
     inkscape:cx="3.3101477"
     inkscape:cy="9.7839946"
     inkscape:window-x="0"
     inkscape:window-y="32"
     inkscape:window-maximized="1"
     inkscape:current-layer="g4545"
     showguides="true"
     inkscape:guide-bbox="true"
     inkscape:snap-page="true" /><g
     id="g4545"
     transform="translate(-118.078,-171.8823)"><path
       d="m 123.307,179.408 c -2.445,1.946 -2.357,3.765 0,5.469 2.357,-1.704 2.446,-3.523 0,-5.469 z"
       style="fill:#ec008c;fill-opacity:1;stroke:#ffffff;stroke-width:0.80000001px;stroke-linecap:round;stroke-linejoin:round;stroke-opacity:1"
       id="path4529"
       inkscape:connector-curvature="0" /><path
       d="m 123.283,177.323 c -0.838,3.338 0.423,4.616 3.148,5.322 0.846,-2.847 0.021,-4.533 -3.148,-5.322 z"
       style="fill:#ec008c;fill-opacity:1;stroke:#ffffff;stroke-width:0.80000001px;stroke-linecap:round;stroke-linejoin:round;stroke-opacity:1"
       id="path4531"
       inkscape:connector-curvature="0" /><path
       d="m 123.331,177.323 c 0.838,3.338 -0.423,4.616 -3.148,5.322 -0.846,-2.847 -0.021,-4.533 3.148,-5.322 z"
       style="fill:#ec008c;fill-opacity:1;stroke:#ffffff;stroke-width:0.80000001px;stroke-linecap:round;stroke-linejoin:round;stroke-opacity:1"
       id="path4533"
       inkscape:connector-curvature="0" /><path
       d="m 123.307,177.323 c -2.445,1.867 -2.357,3.612 0,5.247 2.357,-1.635 2.446,-3.38 0,-5.247 z"
       style="fill:#ec008c;fill-opacity:1;stroke:#ffffff;stroke-width:0.80000001px;stroke-linejoin:round;stroke-opacity:1"
       id="path4535"
       inkscape:connector-curvature="0" /><path
       d="m 123.745,175.627 c -0.463,3.38 0.924,4.523 3.695,4.963 0.525,-2.897 -0.475,-4.486 -3.695,-4.963 z"
       style="fill:#ec008c;fill-opacity:1;stroke:#ffffff;stroke-width:0.80000001px;stroke-linecap:round;stroke-linejoin:round;stroke-opacity:1"
       id="path4537"
       inkscape:connector-curvature="0" /><path
       d="m 122.869,175.627 c 0.464,3.38 -0.924,4.523 -3.695,4.963 -0.525,-2.897 0.475,-4.486 3.695,-4.963 z"
       style="fill:#ec008c;fill-opacity:1;stroke:#ffffff;stroke-width:0.80000001px;stroke-linecap:round;stroke-linejoin:round;stroke-opacity:1"
       id="path4539"
       inkscape:connector-curvature="0" /><path
       d="m 118.478,177.876 c 0.055,-3.079 2.301,-4.857 4.829,-4.874 2.528,-0.017 4.775,1.795 4.829,4.874 -1.276,0.018 -2.312,-0.146 -3.094,-0.627 -0.187,0.847 -0.772,1.672 -1.735,2.474 -0.963,-0.802 -1.548,-1.627 -1.735,-2.474 -0.782,0.481 -1.818,0.645 -3.094,0.627 z"
       style="fill:#ec008c;fill-opacity:1;stroke:#ffffff;stroke-width:0.80000001;stroke-linecap:round;stroke-linejoin:round;stroke-miterlimit:1.5;stroke-dasharray:none;stroke-opacity:1"
       id="path4541"
       inkscape:connector-curvature="0" /><ellipse
       style="fill:#ffffff;fill-opacity:1;stroke:#ffffff;stroke-width:0.86144865;stroke-opacity:1"
       id="path883"
       cx="123.17696"
       cy="172.88956"
       rx="0.35666645"
       ry="0.28555945" /><ellipse
       style="fill:#ec008c;fill-opacity:1;stroke:#ec008c;stroke-width:1.00279319;stroke-opacity:1"
       id="path885"
       cx="123.2066"
       cy="173.78432"
       rx="0.043045282"
       ry="0.32154766" /></g></svg>